<?xml version="1.0" encoding="UTF-8"?>
<svg width="700pt" height="700pt" version="1.1" viewBox="0 0 700 700" xmlns="http://www.w3.org/2000/svg">
 <g>
  <path fill="rgb(255, 217, 102)" d="m317.92 457.12h66.594v15.285h-66.594z"/>
  <path fill="rgb(255, 217, 102)" d="m309.89 428.24h82.648v15.309h-82.648z"/>
  <path fill="rgb(255, 217, 102)" d="m351.4 87.57h-2.8242c-70.137 0.09375-132.77 56.465-132.97 127.35 0 35.281 14.934 62.93 29.961 83.812 15.051 20.488 30.496 36.539 31.57 42.629 2.5898 9.3086 2.5195 16.125 3.9219 23.125 0.91016 7.0703 6.7891 15.168 16.191 17.594 9.9648 3.0352 30.73 3.8984 52.758 4.0117 21.98-0.09375 42.793-0.98047 52.758-4.0117 9.4258-2.4023 15.328-10.523 16.215-17.594 1.375-7 1.3086-13.789 3.8984-23.078 1.0977-6.1133 16.543-22.168 31.617-42.652 15.051-20.883 29.961-48.535 29.938-83.812-0.23828-70.91-62.844-127.28-133.03-127.38zm90.652 202.23c-14.117 20.09-29.309 33.18-33.902 47.508-3.0781 11.129-3.1719 19.648-4.1523 24.059-1.4688 4.3398-0.32812 3.7344-5.9258 6.1602-5.1328 1.8438-27.207 3.3828-48.09 3.2656-20.906 0.11719-42.98-1.4453-48.066-3.2656-5.6016-2.4023-4.4336-1.8203-5.9258-6.1602-0.98047-4.4336-1.0977-12.949-4.1523-24.059-4.5508-14.328-19.762-27.418-33.879-47.508-14.164-19.691-27.066-44.055-27.066-74.875 0-30.754 13.742-58.684 35.465-79.078 21.699-20.395 51.238-32.992 82.203-32.969h2.8242c30.988 0 60.574 12.578 82.25 32.969 21.699 20.395 35.441 48.324 35.441 79.078 0.042969 30.844-12.859 55.18-27.023 74.875z"/>
  <path fill="rgb(255, 217, 102)" d="m293.65 399.38h112.7v15.309h-112.7z"/>
 </g>
</svg>
