<svg version="1.2" xmlns="http://www.w3.org/2000/svg" viewBox="0 0 800 150" width="800" height="150">
	<title>Take ai meal</title>
	<style>
		.s0 { fill: #ffc000 } 
		.s1 { fill: #ffab98 } 
		.s2 { fill: #ff0000 } 
		.s3 { fill: rgb(55, 188, 247) } 
	</style>
	<path id="Warstwa 2" class="s0" d="m90.6 4.4l4.5 5.9-7.2 3.5-1.8-7z"/>
	<path id="Warstwa 5" class="s1" d="m118.2 86.4l3.1 4.2-13.5 21.1-19.5 20-4.9 7.9-26.4-0.6-0.8-18.3 3.6-14.4-4.6-17.8 3.4-2.4 9.3 5.7 6.2 14.2 4.9 2.6 11.9-20.8 2.4-1.5 3.3 3.3-4.8 15.8 0.1 3.8 12-9.6z"/>
	<path id="Warstwa 3" class="s0" d="m92.1 13.7c0 0 26.2 5.9 25.6 9-0.6 3.1 18.1 7.8 21.6 25.3 3.4 17.6 1.8 17.6 1.8 17.6h-101.4l2.1-17.6 9.9-17.2c0 0 10.2-13.9 27.9-15.4 17.7-1.6 12.5-1.7 12.5-1.7z"/>
	<path id="Warstwa 4" class="s0" d="m41.2 65l103.5 1.3c0 0 6.3 3.6 7 6.3 0.8 2.7-0.9 7.1-5.5 8.3-4.7 1.1-111.2 0.6-111.2 0.6 0 0-22.1-10.4 6.2-16.5z"/>
	<path id="Kształt 1" class="s2" d="m163 71.9"/>
	<path id="Warstwa 1" fill-rule="evenodd" d="m89.6 2.2c4.4 0 6.7 2.2 7.6 5.7 0.4 1.2 0 3 0.3 4.2 1.7 0.9 4.3 0.9 6.3 1.6 1.9 0.6 3.8 1.1 5.7 1.9 1.2 0.5 2.6 1.2 3.8 1.7 0.8 0.4 1.7 0.6 2.5 1.1 3.1 1.9 6 3.8 8.8 5.9 1.4 1 2.6 2.3 3.7 3.5 5.4 5.3 9.3 11.5 12.4 19.1 1.3 3.3 1.9 6.9 2.8 10.6 0.5 1.8 0.5 3.8 1 5.4 1 0.7 2.4 0.8 3.6 1.2 2 0.9 3.8 2 5 3.6 0.6 0.9 1 1.9 1.3 3 1.8 5.6-1.9 10.6-5.4 12.1-0.8 0.3-1.6 0.6-2.4 0.8q-0.4 0-0.7 0c-1.5 0.3-3.9 0-5.6 0q-6.4 0-12.8 0c-1.6 0-3.6-0.1-5 0.2-0.7 0.1-1.6-0.1-2 0.2 2.1 2 3.8 5.6 2.2 9.2-1 2.5-3.1 4.2-4.6 6.3-1.9 2.5-3.5 5.2-5.2 7.8-1 1.6-1.9 3-3 4.5-1.2 1.7-2.6 3.2-3.8 4.8-1.1 1.4-2.7 2.6-3.7 4-0.9 1.2-2.1 2.3-3.2 3.4-0.9 0.8-1.7 1.8-2.6 2.5q-0.8 0.8-1.6 1.7c-1.9 1.4-3.3 3.2-5.2 4.6-1.1 0.8-2 2.2-2.5 3.7-0.5 1.9 0.4 3.7-1.4 4.6-1.5 0.7-5.8 0.2-8.1 0.2q-6.7 0-13.5 0.1c-0.9 0.2-2.2-0.2-3.2 0-0.9 0.2-2.9 0.3-3.9 0-2-0.5-2.2-2.1-2.8-4-0.6-1.7-0.9-3.5-1.3-5.3-0.2-0.9-0.1-1.7-0.3-2.5q0-2-0.1-4c0.1-0.5 0-1.2 0.2-1.8 0.3-1.4 0.4-2.8 0.8-4.1 0.9-2.8 2.3-5.1 3.2-7.9 0.4-1.2 0.4-2.6 0.7-4 0.2-1.1-0.1-3.2-0.3-4-0.3-1.1-0.3-2-0.6-3-0.8-2.3-1.7-4.4-2.6-6.6-0.5-1.1-1.4-3.5-1-5.3 0.2-0.8 0.3-1.7 0.7-2.3 0.5-0.6 1.6-1.4 1.8-2.1 0-0.1 0-0.2-0.1-0.3-1.5-0.7-6.2-0.3-8.4-0.3q-3.5 0-7 0c-1.1 0-2.6 0.1-3.6-0.1q-0.6 0-1.2 0c-1.2-0.3-2.5-0.3-3.6-0.8-2.8-1.1-4.6-3-5.7-5.7q-0.3-1-0.6-2.1c-0.3-1.2 0-3.1 0.3-4.1 0.9-3.2 3.1-5.6 6-6.8 1.6-0.7 4-0.2 4.8-1.7 0.3-0.8 0.2-1.6 0.4-2.6 0.4-1.7 0.3-3.6 0.7-5.3 0.2-0.8 0.3-2.4-0.2-2.8-0.3-0.2-1-0.1-1.5-0.1q-1.8 0-3.6 0-7.1 0-14.2 0c-2.6 0-4.8 0.5-5.3-1.7-0.8-3.1 3.7-2.7 6.2-2.7q7.4 0 14.8 0 2.1 0 4.2 0c0.6 0 1.5 0.1 2 0 0.7-0.4 0.7-1 1-1.8 0.4-1.2 0.9-2.4 1.4-3.5 0.6-1.3 1.4-2.7 2.1-4 1.5-2.4 2.9-4.8 4.5-7 0.8-1 1.8-2 2.8-2.7 0.6-0.5 1.1-1.2 1.7-1.7 0.9-0.6 1.5-1.6 2.4-2.2 2.1-1.6 4.2-3.4 6.6-4.9 4.3-2.7 9.7-4.6 15.3-6.1 1.5-0.5 3.4-0.5 4.9-0.8 0.2-0.4 0.6-0.6 0.7-1.1 0.1-0.6-0.1-1.4-0.2-1.9-0.1-0.8 0.3-2.4 0.5-3 0.8-1.7 2.3-3.3 4.1-4 0.5-0.2 1.3-0.2 1.8-0.5zm0.5 4.3c-0.2 0.1-0.5 0.1-0.7 0.2-0.7 0.2-1.4 0.6-1.7 1.2-0.9 2.2 1.1 4.5 3.5 3.9 1.6-0.4 2.2-2.3 1.4-4.1-0.4-0.8-1.2-1.2-2.5-1.2zm-45.5 8.6c2.1 0 5-0.2 6.8 0.2 1.2 0.3 2.3-0.1 3.2 0.5 0.9 0.6 1.1 2.3 0.4 3.2-0.7 0.9-2.4 0.7-3.7 1q-0.9 0-1.7 0c-0.9 0.2-2.4 0.2-3.3 0-1-0.2-2.1 0.1-3.1-0.2-1.1-0.2-2.2 0.1-3.2-0.1q-0.7 0-1.4 0c-1.2-0.3-2.2-0.1-2.8-1-0.6-0.7-0.3-1.8-0.1-2.6 0.4-0.3 0.8-0.6 1.4-0.7 1.3-0.4 3 0.1 4.3-0.2 0.8-0.2 2.6 0.3 3.2-0.1zm45.7 1.3c-0.3 0.2-1.4 0.1-1.9 0.1q-1.9 0.1-3.8 0.2c-1 0.2-2.2 0.2-3.3 0.4-2.7 0.8-5.4 1.1-7.9 2.1-9.4 3.9-17.1 9.3-22.6 17.1-2.3 3.3-4 7.1-5.7 11.1q3.4 0 6.8 0c0.3 0.2 0.9 0 1.3 0.1 0.5 0.1 1.1 0.3 1.4 0.5 1.1 0.8 0.5 2.9-0.5 3.4-0.8 0.5-2.2 0.4-3.5 0.4-2.4 0-5.6-0.3-7.6 0.1-0.6 0.9-0.5 1.8-0.9 3-0.5 2.2-1 5.6-0.4 8 1.4 1 4.3 0.7 6.6 0.7q7.2 0 14.3 0 27.1 0 54.3 0 8.4 0 16.8 0c1.5 0 5 0.3 5.4-0.7 0.6-0.7 0.1-3.5-0.1-4.4q0-0.5-0.1-0.9c-0.5-2.3-0.8-4.5-1.5-6.6-0.9-2.6-1.9-5.1-2.9-7.4-1.5-3.3-3.4-6-5.5-8.8-0.7-0.9-1.7-1.7-2.5-2.7-2.2-2.9-5.4-5.2-8.5-7.2-3.9-2.6-8.1-4.8-13-6.4-2.1-0.7-4.3-1-6.6-1.5q-0.8-0.1-1.6-0.2c-1.9-0.4-4.3-0.3-6.5-0.4zm-84.7 11.8q11.8 0 23.6 0c2.7 0 7.6-0.7 6.8 2.7-0.1 0.6-0.5 1.1-1 1.4-1 0.5-5 0.2-6.6 0.2q-8.9 0-17.7 0c-1.8 0-5.1 0.4-6.5-0.2-0.5-0.2-0.7-0.7-1-1.1-0.1-1.3 0-2.3 1-2.7 0.4-0.2 1.1-0.1 1.4-0.3zm29.4 40.1c-0.3 0.2-0.9 0.1-1.2 0.3-1.1 0.3-2.2 0.9-2.8 1.8-0.4 0.5-0.7 1.2-0.9 1.8-1.1 3.5 1.4 6 3.7 6.9 2.2 0.8 6 0.4 8.9 0.4q9 0 18 0 30.8 0 61.5 0 8.7 0 17.3 0c2.8 0 6.2 0.3 8-0.7 1.6-1 2.3-2.4 2.8-4.6 0.5-2.2-1.2-4-2.2-4.7-2.1-1.4-4.8-1.2-8.2-1.2q-7.9 0-15.8 0-44.5 0-89.1 0zm37.1 15.6q-4.4 0.1-8.8 0.3 0 0 0 0 0 0 0.1 0c0.6 0.8 1.6 1.3 2.4 1.9 1.6 1.2 3.3 3.4 4.2 5.3 1.2 2.8 2.1 5.8 3.1 8.9 0.4 1.3 0.6 3.6 1.4 4.5 0.5 0.6 2.1 0.9 3 1.1 0.8 0.2 1-0.7 1.2-1.1 0.7-1.3 1.4-2.7 2.1-4 1.5-3 2.9-6.3 4.7-9.2 0.4-0.8 0.6-1.5 1.1-2.3 0.7-1.1 1.4-2.3 2.1-3.5 0.4-0.6 0.9-1.2 1.3-1.9q-2.1 0-4.2 0c-0.4-0.2-2.9 0-3.7 0q-5 0-10 0zm24.8 0c-0.1 0-0.3 0.1-0.4 0.1q0 0.1 0 0.2c-0.1 0-0.1 0.1-0.1 0.3 1.2 1.3 3.1 2.9 3.7 4.6 0.6 1.9-0.6 4-1.1 5.3-1.2 2.6-2.4 5.1-3.6 7.8-0.4 1.1-1.1 2.2-1.4 3.3q0.1 0 0.1 0c0.7-0.7 1.6-1.1 2.4-1.7 1.2-0.9 2.4-1.9 3.7-2.9q0.4-0.4 0.9-0.9c0.7-0.6 1.3-1.3 1.9-2 0.6-0.8 1.3-1.4 1.9-2.1 1.5-2.1 3.2-4 4.7-6.1 0.9-1.2 2-2.3 2.9-3.5 0.6-0.7 1.5-1 1.7-2.1q-0.1 0-0.1 0 0-0.1 0-0.1c-2.1-0.3-4.8-0.1-7.1-0.1-3.5 0-6.7-0.1-10.1-0.1zm-38 4.5c-0.1 0.1-0.3 0.1-0.6 0.2-1.1 1.6-0.2 4.4 0.5 6.1 0.9 2.4 1.8 4.5 2.6 7 0.3 1 0.3 1.9 0.5 2.9 0.2 0.8 0.5 3.3 0.3 4.4-0.3 1.2-0.4 2.4-0.7 3.5-0.6 1.8-1.6 3.3-2.3 4.9-0.6 1.5-0.9 2.9-1.3 4.5-0.5 1.7-1.1 5.1-0.6 7.2q0 1 0.1 1.9c0.2 1.2 0.3 2.5 0.6 3.6 0.2 0.7 0.2 1.5 0.7 1.9 0.8 0.6 2.8 0.2 4.1 0.2q5.2 0 10.5 0 2.7 0 5.4 0c1.3 0 2.9 0 3.8-0.2 0.5-0.8 0.6-1.8 1-2.6 0.5-1.1 1.2-2 1.9-2.9q0.4-0.3 0.7-0.7c0.9-0.8 1.7-1.6 2.6-2.3 0.4-0.3 0.8-0.9 1.2-1.2 1.5-1.1 2.8-2.5 4.3-3.7 0.5-0.3 0.9-0.9 1.4-1.3 0.8-0.7 1.5-1.6 2.3-2.2 0.5-0.4 1.2-0.9 1.6-1.4 1-1.4 2.4-2.5 3.4-3.9 3.1-4.2 6.2-8.4 9.3-12.7 1.6-2.4 3.1-4.8 4.8-7.2q0.9-1.3 1.8-2.5c0.1-0.2 0.4-0.5 0.5-0.7 0.6-1.5-0.9-2.5-2.3-2.5-0.1 0.2-0.3 0.1-0.4 0.3-0.6 0.3-1.3 1.3-1.7 1.8q-0.5 0.4-0.9 0.9c-1 1.2-1.7 2.5-2.6 3.7-1 1.4-2.2 2.7-3.3 4.1q-0.6 0.5-1.1 1c-0.8 1-1.8 1.9-2.8 2.7-0.8 0.6-1.5 1.6-2.4 2.2-2.2 1.7-4.3 3.6-6.6 5.2-1.4 1-2.7 2.2-4.1 3.2-0.7 0.6-1.3 1.3-2.2 1.7-1 0.4-2.3-0.1-2.9-0.5-0.5-0.4-0.9-1.4-0.6-2.3 0.2-0.6 0.6-1.3 0.9-1.9 0.4-0.8 0.6-1.6 1-2.4q3.2-6.4 6-12.9c0.7-1.5 2.1-3.7 1.8-5.7-0.4-0.3-0.6-0.8-1.1-1-1.4-0.5-2.3 0.8-2.8 1.4-1.7 2.3-2.6 5.3-4.1 7.8-2.5 4-4.5 8.6-6.7 12.8-1.1 2.1-2 4.5-3.3 6.3-0.9 1.2-2.2 1.5-3.5 2.1-1.2 0.5-2.4 1.3-3.3 2.1-1.1 1.1-2 2.4-2.7 3.9-0.3 0.9-0.3 2.1-1.2 2.4-0.4 0.4-1.3 0.2-1.8 0-0.5-0.2-0.9-0.3-1.2-0.8-0.6-1.2 0.4-4.2 0.8-5 1.1-2.1 2.7-3.7 4.6-4.9 1-0.6 2.1-0.8 3-1.3 1.1-0.7 1.8-1.6 2.5-2.7 0.4-0.7 0.9-1.4 0.9-2.4-1.3-1.3-4-1.6-4.9-3.2-0.6-0.9-0.7-3-1.1-4.2-0.8-2.4-1.6-4.9-2.5-7.2q-0.5-1.5-1-3c-1.1-2.5-3.1-4.6-6.8-4.5z"/>
	<path id="Take AI Meal" class="s3" aria-label="Take AI Meal"  d="m165.2 48.5h18.6v58.5h14v-58.5h18.6v-11.3h-51.2zm57.8 30.6c0 17.3 11.2 28.8 25.2 28.8 8.8 0 15.1-4.2 18.4-9v8.1h14.1v-55.4h-14.1v7.9c-3.3-4.6-9.4-8.8-18.3-8.8-14.1 0-25.3 11.1-25.3 28.4zm43.6 0.2c0 10.5-7 16.3-14.7 16.3-7.5 0-14.6-6-14.6-16.5 0-10.5 7.1-16.1 14.6-16.1 7.7 0 14.7 5.8 14.7 16.3zm27.8 27.7h14v-23.6l18.8 23.6h18.2l-24.6-27.6 24.4-27.8h-18.2l-18.6 23.5v-42.1h-14zm82.2-44.8c7.2 0 13 4.6 13.2 11.9h-26.3c1.1-7.6 6.4-11.9 13.1-11.9zm26.3 27.4h-15.1c-1.8 3.7-5.1 6.7-11.1 6.7-7 0-12.6-4.6-13.3-12.8h40.5c0.3-1.8 0.4-3.6 0.4-5.4 0-16.5-11.3-27.4-27.3-27.4-16.4 0-27.8 11.1-27.8 28.6 0 17.4 11.7 28.6 27.8 28.6 13.7 0 22.9-8.1 25.9-18.3zm82.8 17.4h14.8l-25.1-69.9h-16.3l-25.1 69.9h14.7l4.6-13.3h27.8zm-8.4-24.5h-20.2l10.1-29.2zm32.6 24.5h14v-69.8h-14zm51.6 0h14v-45.4l18.8 45.4h10.6l18.7-45.4v45.4h14v-69.8h-15.8l-22.2 51.9-22.2-51.9h-15.9zm113.7-44.8c7.2 0 13 4.6 13.2 11.9h-26.3c1.1-7.6 6.4-11.9 13.1-11.9zm26.3 27.4h-15.1c-1.8 3.7-5.1 6.7-11.1 6.7-7 0-12.6-4.6-13.3-12.8h40.5c0.3-1.8 0.4-3.6 0.4-5.4 0-16.5-11.3-27.4-27.3-27.4-16.4 0-27.8 11.1-27.8 28.6 0 17.4 11.7 28.6 27.8 28.6 13.7 0 22.9-8.1 25.9-18.3zm8-10.5c0 17.3 11.2 28.8 25.2 28.8 8.8 0 15.1-4.2 18.4-9v8.1h14.1v-55.4h-14.1v7.9c-3.3-4.6-9.4-8.8-18.3-8.8-14.1 0-25.3 11.1-25.3 28.4zm43.6 0.2c0 10.5-7 16.3-14.7 16.3-7.5 0-14.6-6-14.6-16.5 0-10.5 7.1-16.1 14.6-16.1 7.7 0 14.7 5.8 14.7 16.3zm27.8 27.7h14v-74h-14z"/>
</svg>